<svg width="200" height="48" viewBox="0 0 200 48" fill="none" xmlns="http://www.w3.org/2000/svg">
  <defs>
    <linearGradient id="gradient1" x1="0" y1="8" x2="32" y2="40" gradientUnits="userSpaceOnUse">
      <stop offset="0%" stop-color="#0066cc"/>
      <stop offset="100%" stop-color="#00abe2"/>
    </linearGradient>
  </defs>

  <!-- Logo Icon -->
  <rect x="0" y="8" width="32" height="32" rx="8" fill="url(#gradient1)"/>
  <path d="M16 18L22 24L16 30" stroke="white" stroke-width="2.5" stroke-linecap="round" stroke-linejoin="round"/>

  <!-- Text "StrataBlue" -->
  <g fill="white">
    <!-- S -->
    <path d="M48 21.5c0-1.1.3-2 .9-2.7.6-.7 1.5-1.1 2.5-1.4-.8-.3-1.4-.7-1.8-1.3-.4-.6-.7-1.3-.7-2.1 0-1.2.5-2.2 1.4-2.9.9-.7 2.1-1.1 3.5-1.1 1.5 0 2.7.4 3.6 1.1.9.7 1.3 1.7 1.3 2.9h-2.8c0-.5-.2-.9-.5-1.2-.3-.3-.8-.5-1.4-.5-.5 0-1 .1-1.3.4-.3.3-.5.6-.5 1.1 0 .5.2.9.6 1.2.4.3 1 .5 1.9.5h1.5v2.3h-1.5c-1 0-1.7.2-2.2.6-.5.4-.7.9-.7 1.5 0 .6.2 1 .6 1.4.4.3 1 .5 1.7.5.7 0 1.2-.2 1.6-.5.4-.4.6-.8.6-1.4h2.8c0 1.3-.5 2.3-1.4 3-.9.7-2.2 1.1-3.8 1.1-1.5 0-2.8-.3-3.7-1-.9-.7-1.4-1.7-1.4-3z"/>
    <!-- t -->
    <path d="M62.5 13.5h2.7v3.4h2.3v2.3h-2.3v5.1c0 .4.1.7.3.9.2.2.5.3.9.3h1.1v2.5h-1.6c-1.1 0-2-.3-2.6-.8-.6-.5-.9-1.3-.9-2.3v-5.7h-1.7v-2.3h1.7v-3.4z"/>
    <!-- r -->
    <path d="M69.5 16.9h2.6v1.8c.3-.6.8-1.1 1.3-1.5.5-.4 1.1-.6 1.8-.6h.8v2.8h-1.2c-.7 0-1.3.2-1.7.7-.4.5-.6 1.2-.6 2.2v5.7h-2.7v-11.1z"/>
    <!-- a -->
    <path d="M83.7 27.1c-.3.3-.7.6-1.2.8-.5.2-1 .3-1.6.3-1 0-1.9-.3-2.5-.9-.6-.6-.9-1.5-.9-2.6v-.5c.1-1.2.4-2.2 1.1-3 .7-.8 1.6-1.2 2.8-1.2.9 0 1.6.2 2.2.7.6.5.9 1.2.9 2.1v.9h-4.3c0 .5.2.9.5 1.2.3.3.7.4 1.2.4.8 0 1.4-.3 1.8-.9l.8 1.5c-.3.4-.7.8-1.1 1.2zm-2.8-7.2c-.5 0-.9.2-1.2.5-.3.3-.5.8-.5 1.4h3.3v-.2c0-.5-.1-.9-.4-1.2-.3-.3-.7-.5-1.2-.5z"/>
    <!-- t -->
    <path d="M87.5 13.5h2.7v3.4h2.3v2.3h-2.3v5.1c0 .4.1.7.3.9.2.2.5.3.9.3h1.1v2.5h-1.6c-1.1 0-2-.3-2.6-.8-.6-.5-.9-1.3-.9-2.3v-5.7h-1.7v-2.3h1.7v-3.4z"/>
    <!-- a -->
    <path d="M100.7 27.1c-.3.3-.7.6-1.2.8-.5.2-1 .3-1.6.3-1 0-1.9-.3-2.5-.9-.6-.6-.9-1.5-.9-2.6v-.5c.1-1.2.4-2.2 1.1-3 .7-.8 1.6-1.2 2.8-1.2.9 0 1.6.2 2.2.7.6.5.9 1.2.9 2.1v.9h-4.3c0 .5.2.9.5 1.2.3.3.7.4 1.2.4.8 0 1.4-.3 1.8-.9l.8 1.5c-.3.4-.7.8-1.1 1.2zm-2.8-7.2c-.5 0-.9.2-1.2.5-.3.3-.5.8-.5 1.4h3.3v-.2c0-.5-.1-.9-.4-1.2-.3-.3-.7-.5-1.2-.5z"/>
    <!-- B -->
    <path d="M105 10h4.2c1.7 0 3 .4 3.9 1.2.9.8 1.4 1.9 1.4 3.3 0 .8-.2 1.5-.6 2.1-.4.6-1 1.1-1.7 1.4.9.3 1.5.7 2 1.4.5.7.7 1.5.7 2.4 0 1.5-.5 2.7-1.4 3.5-.9.9-2.2 1.3-3.8 1.3H105V10zm4 7.5c.6 0 1.1-.2 1.5-.5.4-.3.5-.8.5-1.4 0-.7-.2-1.2-.5-1.5-.3-.3-.8-.5-1.4-.5h-1.3v3.9h1.2zm.3 6.9c.7 0 1.2-.2 1.6-.5.4-.4.6-.9.6-1.6 0-.7-.2-1.2-.6-1.6-.4-.4-.9-.6-1.6-.6h-1.5v4.3h1.5z"/>
    <!-- l -->
    <path d="M118.5 10h2.7v16h-2.7V10z"/>
    <!-- u -->
    <path d="M125.5 16.9h2.6v7.3c0 .5.1.9.4 1.2.3.3.6.4 1.1.4.5 0 .9-.2 1.2-.5.3-.3.5-.8.5-1.4v-7h2.7v11.1h-2.6v-1.4c-.3.5-.7.9-1.2 1.2-.5.3-1.1.4-1.8.4-1 0-1.8-.3-2.4-.9-.6-.6-.9-1.5-.9-2.6v-7.8z"/>
    <!-- e -->
    <path d="M142.5 24.7c-.4.6-.9 1.1-1.5 1.4-.6.3-1.3.5-2 .5-1.3 0-2.3-.5-3-1.4-.7-.9-1.1-2.2-1.1-3.8v-.5c0-1.6.4-2.9 1.1-3.8.7-.9 1.8-1.4 3.1-1.4.7 0 1.3.1 1.9.4.6.3 1 .7 1.4 1.3v-1.5h2.6v11.1h-2.6v-1.3zm-2.7.7c.6 0 1.1-.2 1.4-.6.3-.4.5-1 .5-1.8v-.8c0-.8-.2-1.5-.5-1.9-.3-.4-.8-.7-1.4-.7-.6 0-1.1.2-1.4.7-.3.5-.5 1.1-.5 2v.6c0 .9.2 1.5.5 2 .3.5.8.7 1.4.7z"/>
  </g>
</svg>
